<svg xmlns="http://www.w3.org/2000/svg" xmlns:xlink="http://www.w3.org/1999/xlink" aria-hidden="true" role="img" class="iconify iconify--logos" width="35.93" height="32" preserveAspectRatio="xMidYMid meet" viewBox="0 0 256 228"><path fill="#00D8FF" d="M210.483 73.824a171.49 171.49 0 0 0-8.24-2.597c.465-1.9.893-3.777 1.273-5.621c6.238-30.281 2.16-54.676-11.769-62.708c-13.355-7.7-35.196.329-57.254 19.526a171.23 171.23 0 0 0-6.375 5.848a155.866 155.866 0 0 0-4.241-3.917C100.759 3.829 77.587-4.822 63.673 3.233C50.33 10.957 46.379 33.89 51.995 62.588a170.974 170.974 0 0 0 1.892 8.48c-3.28.932-6.445 1.924-9.474 2.98C17.309 83.498 0 98.307 0 113.668c0 15.865 18.582 32.168 46.812 40.386a145.52 145.52 0 0 0 6.921 1.696c-.512 2.213-.982 4.46-1.405 6.731c-5.354 28.2-1.173 50.591 12.235 58.266c13.871 7.926 36.949-.22 59.852-20.469a145.567 145.567 0 0 0 5.342-4.923c1.456 1.345 2.97 2.678 4.542 3.988c22.422 20.614 45.621 28.448 59.473 20.573c13.408-7.675 17.589-30.066 12.235-58.266a145.016 145.016 0 0 0-1.405-6.731c2.378-.572 4.708-1.177 6.975-1.814c28.23-8.218 46.812-24.521 46.812-40.386c0-15.361-17.309-30.17-45.517-39.844zm-6.365 70.548c-2.039.594-4.123 1.158-6.242 1.689c-.984 2.493-2.043 4.966-3.176 7.404c-12.744 27.316-30.163 44.219-40.176 44.219c-10.048 0-27.945-17.616-40.861-45.747a167.235 167.235 0 0 1-3.31-7.719c-2.573.64-5.137 1.305-7.68 1.995C25.587 139.207 9.877 126.787 9.877 113.668c0-13.355 15.71-25.775 40.568-33.415a161.836 161.836 0 0 1 7.256-1.893c.906-2.296 1.85-4.572 2.83-6.82c12.915-28.131 30.813-45.747 40.861-45.747c10.013 0 27.432 16.903 40.176 44.219a145.395 145.395 0 0 1 3.176 7.404c2.119-.531 4.203-1.095 6.242-1.689c24.858-7.64 40.568-20.06 40.568-33.415c0-13.119-15.71-25.539-40.568-33.415z"></path><path fill="#00D8FF" d="M128 137.332c-13.807 0-25-11.193-25-25s11.193-25 25-25s25 11.193 25 25s-11.193 25-25 25zm0-40c-8.284 0-15 6.716-15 15s6.716 15 15 15s15-6.716 15-15s-6.716-15-15-15z"></path><path fill="#00D8FF" d="M128 118.177c-3.314 0-6-2.686-6-6s2.686-6 6-6s6 2.686 6 6s-2.686 6-6 6zm22.5-22.5c-3.314 0-6-2.686-6-6s2.686-6 6-6s6 2.686 6 6s-2.686 6-6 6zm-45 0c-3.314 0-6-2.686-6-6s2.686-6 6-6s6 2.686 6 6s-2.686 6-6 6z"></path><path fill="#00D8FF" d="M87.5 118.177c-3.314 0-6-2.686-6-6s2.686-6 6-6s6 2.686 6 6s-2.686 6-6 6zm81 0c-3.314 0-6-2.686-6-6s2.686-6 6-6s6 2.686 6 6s-2.686 6-6 6z"></path><path fill="#00D8FF" d="M105.5 95.677c-3.314 0-6-2.686-6-6s2.686-6 6-6s6 2.686 6 6s-2.686 6-6 6zm45 0c-3.314 0-6-2.686-6-6s2.686-6 6-6s6 2.686 6 6s-2.686 6-6 6z"></path></svg>
